<mxfile host="app.diagrams.net" agent="Mozilla/5.0 (Windows NT 10.0; Win64; x64) AppleWebKit/537.36 (KHTML, like Gecko) Chrome/132.0.0.0 YaBrowser/25.2.0.0 Safari/537.36" version="26.0.16">
  <diagram name="Страница — 1" id="8J66_-uDEm4GCvcUEeyM">
    <mxGraphModel dx="453" dy="1651" grid="1" gridSize="10" guides="1" tooltips="1" connect="1" arrows="1" fold="1" page="1" pageScale="1" pageWidth="827" pageHeight="1169" math="0" shadow="0">
      <root>
        <mxCell id="0" />
        <mxCell id="1" parent="0" />
        <mxCell id="rXha1yn2Jos-oDwd2vt6-12" value="" style="edgeStyle=orthogonalEdgeStyle;rounded=0;orthogonalLoop=1;jettySize=auto;html=1;" edge="1" parent="1" source="rXha1yn2Jos-oDwd2vt6-1" target="rXha1yn2Jos-oDwd2vt6-6">
          <mxGeometry relative="1" as="geometry" />
        </mxCell>
        <mxCell id="rXha1yn2Jos-oDwd2vt6-1" value="start" style="ellipse;whiteSpace=wrap;html=1;" vertex="1" parent="1">
          <mxGeometry x="40" y="10" width="120" height="80" as="geometry" />
        </mxCell>
        <mxCell id="rXha1yn2Jos-oDwd2vt6-13" value="" style="edgeStyle=orthogonalEdgeStyle;rounded=0;orthogonalLoop=1;jettySize=auto;html=1;" edge="1" parent="1" source="rXha1yn2Jos-oDwd2vt6-6" target="rXha1yn2Jos-oDwd2vt6-39">
          <mxGeometry relative="1" as="geometry">
            <mxPoint x="100" y="199.99999999999977" as="targetPoint" />
          </mxGeometry>
        </mxCell>
        <mxCell id="rXha1yn2Jos-oDwd2vt6-6" value="input num" style="rounded=0;whiteSpace=wrap;html=1;" vertex="1" parent="1">
          <mxGeometry x="40" y="110" width="120" height="60" as="geometry" />
        </mxCell>
        <mxCell id="rXha1yn2Jos-oDwd2vt6-21" value="" style="edgeStyle=orthogonalEdgeStyle;rounded=0;orthogonalLoop=1;jettySize=auto;html=1;" edge="1" parent="1" target="rXha1yn2Jos-oDwd2vt6-29">
          <mxGeometry relative="1" as="geometry">
            <mxPoint x="100" y="90" as="sourcePoint" />
          </mxGeometry>
        </mxCell>
        <mxCell id="rXha1yn2Jos-oDwd2vt6-22" value="end" style="ellipse;whiteSpace=wrap;html=1;" vertex="1" parent="1">
          <mxGeometry x="40" y="370" width="120" height="80" as="geometry" />
        </mxCell>
        <mxCell id="rXha1yn2Jos-oDwd2vt6-29" value="input a&lt;div&gt;input b&lt;/div&gt;" style="rounded=0;whiteSpace=wrap;html=1;" vertex="1" parent="1">
          <mxGeometry x="40" y="110" width="120" height="60" as="geometry" />
        </mxCell>
        <mxCell id="rXha1yn2Jos-oDwd2vt6-36" value="task6" style="text;html=1;align=center;verticalAlign=middle;resizable=0;points=[];autosize=1;strokeColor=none;fillColor=none;" vertex="1" parent="1">
          <mxGeometry x="70" y="-50" width="50" height="30" as="geometry" />
        </mxCell>
        <mxCell id="rXha1yn2Jos-oDwd2vt6-42" style="edgeStyle=orthogonalEdgeStyle;rounded=0;orthogonalLoop=1;jettySize=auto;html=1;" edge="1" parent="1" source="rXha1yn2Jos-oDwd2vt6-39" target="rXha1yn2Jos-oDwd2vt6-41">
          <mxGeometry relative="1" as="geometry" />
        </mxCell>
        <mxCell id="rXha1yn2Jos-oDwd2vt6-39" value="a = b&lt;div&gt;&amp;amp;&amp;amp;&lt;/div&gt;&lt;div&gt;b = a&lt;/div&gt;" style="rounded=0;whiteSpace=wrap;html=1;" vertex="1" parent="1">
          <mxGeometry x="40" y="200" width="120" height="50" as="geometry" />
        </mxCell>
        <mxCell id="rXha1yn2Jos-oDwd2vt6-44" style="edgeStyle=orthogonalEdgeStyle;rounded=0;orthogonalLoop=1;jettySize=auto;html=1;" edge="1" parent="1" source="rXha1yn2Jos-oDwd2vt6-41" target="rXha1yn2Jos-oDwd2vt6-22">
          <mxGeometry relative="1" as="geometry" />
        </mxCell>
        <mxCell id="rXha1yn2Jos-oDwd2vt6-41" value="a ile b&#39;ni gosteririk" style="rounded=0;whiteSpace=wrap;html=1;" vertex="1" parent="1">
          <mxGeometry x="25" y="280" width="150" height="50" as="geometry" />
        </mxCell>
      </root>
    </mxGraphModel>
  </diagram>
</mxfile>
